<?xml version="1.0" encoding="UTF-8"?>
<svg id="Layer_1" xmlns="http://www.w3.org/2000/svg" version="1.1" viewBox="0 0 595.28 841.89">
  <!-- Generator: Adobe Illustrator 29.1.0, SVG Export Plug-In . SVG Version: 2.1.0 Build 142)  -->
  <defs>
    <style>
      .st0 {
        fill: #fff;
      }
    </style>
  </defs>
  <g id="Ipuj1p">
    <g>
      <path d="M20.96,291.33v202.5l-1.5,1.5h-304.5v-204H20.96ZM-131.04,316.33c-3.53-.78-1.74,5.07-3.96,6.54l-7.04.47,4.87,4.69-1.87,7.29,6.66-3.82,6.33,3.83-2.04-7.41,6.05-4.58c-6.22.71-9.29-.23-9-7.01ZM-162.9,332.19l-2.64-6.87-2.61,6.89-6.89.13,4.9,4.65-1.89,7.34,6.51-4.01,6.48,4.01-1.86-7.31,4.87-4.68-6.86-.15ZM-89.04,332.34l-7.06-.45-1.95-6.56-3.09,6.9-6.9.11,4.9,4.65-1.89,7.34,6.51-4.01,6.48,4.01-1.87-7.29,4.87-4.69ZM-189.04,349.33c-2.31-2.82-2.57,6.45-3.1,6.9l-7.9.12,5.53,4.94-1.52,7.05,6.35-3.92,5.63,3.92-1.52-7.05,5.53-4.94-7.9-.12-1.11-6.9ZM-71.91,356.2l-3.12-6.87-1.97,6.54-7.04.47,5.75,5.47-2.75,6.51c1.27,1.19,5.54-4.19,7.36-3.89,1.68.29,3.04,4.46,5.64,3.89l-1.79-6.36,5.8-5.63-7.87-.14ZM-198.05,383.33c-3.52-.79-1.74,5.07-3.95,6.54l-7.03.47,6.04,4.58-3.05,7.4c1.27,1.19,4.54-4.04,7.34-3.78,2.64.25,3.9,3.96,6.65,3.78l-3.05-7.4,6.04-4.58-7.03-.47-1.97-6.54ZM-56.04,390.34c-7.29,1.25-6.55-2.1-9.5-7.01l-2.61,6.87-7.88-.87,5.86,5.68-1.85,7.31c5.84-4.8,7.14-4.8,12.98,0l-1.85-7.31,4.86-4.68ZM-189.04,416.33c-2.31-2.82-2.57,6.45-3.1,6.9l-7.9.12,5.53,4.94-1.52,7.05,6.35-3.92,5.63,3.92-1.52-7.05,5.53-4.94-7.9-.12-1.11-6.9ZM-71.94,423.23l-3.09-6.9-1.97,6.54-7.04.47c4.52,4.34,7.22,5.55,3,11.98,1.28,1.19,5.54-4.2,7.36-3.89,1.68.29,3.04,4.46,5.64,3.89l-1.79-6.36,5.8-5.63-7.9-.11ZM-162.9,448.19l-2.64-6.87-2.64,6.87-6.86.15,4.9,4.65-1.89,7.34,6.51-4.01,6.48,4.01-1.86-7.31,4.87-4.68-6.86-.15ZM-89.04,448.34l-7.04-.47-2.46-6.53c-3.06,6.29-2.82,7.41-10.52,7.5l5.88,4.1-1.86,7.4,6.51-4.01,5.97,4.02-1.36-7.31,4.87-4.69ZM-131.04,450.33c-3.53-.78-1.74,5.07-3.95,6.54l-7.03-.54,4.84,5.73-1.85,7.27,6.47-3.98,6.52,3.98-1.86-7.4c.48-1.99,7.81-3.59,5.86-5.6-5.89,2.8-9.34.43-9-6.01Z"/>
      <path d="M226.96,403.33v7h-26.5c-2.93,2.9-.98,8.14-1.5,12h26v8h-24.5c-3.06,3.46-.88,9.56-1.5,14h28l1,8h-38v-49h37Z"/>
      <path d="M542.96,403.33v36.5c0,.35,4.3,4.35,5.25,4.74,4.75,1.94,14.75-.49,14.75-5.74v-35.5h10c-3.82,10.93,3.16,36.72-4.45,45.05-6.42,7.02-26.13,6.87-31.99-1.11-1.44-1.97-3.56-8.24-3.56-10.44v-33.5h10Z"/>
      <path d="M443.96,318.33v18c14.48-11.89,27.3-.36,25.99,16.49-1.01,13-11.53,20.62-23.4,13.39-1.65-1.01-.93-3.35-3.08-2.88l-.51,5.01h-8.01v-50.01h9ZM449.67,338.54c-8.87,2.66-7.84,24.94,3.7,23.78,11.25-1.12,9.94-27.88-3.7-23.78Z"/>
      <path d="M323.96,318.33v50h-8.01s-.51-5.01-.51-5.01c-2.14-.47-1.42,1.87-3.08,2.88-11.77,7.18-22.4-.55-23.4-13.39-1.31-16.81,11.66-28.51,25.99-16.49v-18h9ZM303.67,338.54c-7.56,2.27-7.99,21.59,1.02,23.59,14.42,3.19,13.82-28.03-1.02-23.59Z"/>
      <path d="M405.96,318.33v50h-8.01s-.5-5.01-.5-5.01c-5.95,4.36-9.74,7.84-17.49,4.51-16.13-6.94-10.48-44.39,11.91-34.86,2.86,1.22,2.46,3.41,5.09,3.37v-18h9ZM385.67,338.54c-8.38,2.5-8.31,25.34,3.71,23.77,11.33-1.48,10.18-27.92-3.71-23.77Z"/>
      <path d="M105.96,332.32l-8.94,1.99c-7.5-16.83-23.9-8.01-24.14,8.53-.26,18.47,18.72,27.27,24.09,7.49l9.95,3.48c-6.2,21.83-38.72,19.65-42.52-2.42-3.61-20.96,6.81-37.4,29.61-32.61,5.8,1.22,11.68,7.56,11.95,13.55Z"/>
      <path d="M357.96,464.83c.04.28,1.5,1.13,1,1.49h-10s.44-49.02.44-49.02l8.57-.98.49,5c1.85-1.75,3.55-4.18,6.21-4.78,26.23-5.96,25.42,39.24,2.9,36.72-4.84-.54-5.57-3.69-9.61-4.93.5,5.19-.69,11.47,0,16.5ZM364.7,422.51c-9.49,1.93-9.47,25.45,3.67,23.8,10.11-1.27,9.4-26.46-3.67-23.8Z"/>
      <path d="M88.96,403.33h9c.5.37-1,1.29-1,1.5v15.5c2.92-.32,4.73-3.15,7.73-3.77,3.59-.75,10.66-.58,13.33,2.22.6.63,2.95,5.58,2.95,6.05v27.5h-9v-26.5c0-2.9-8.39-5.07-12.02-1.02-3.61,4.02-3.72,22.01-1.98,27.51h-9s0-48.99,0-48.99Z"/>
      <path d="M483.92,332.38l7.05,24.96c2.27.4,1.59-.12,2.23-1.28,1.82-3.32,6.86-22.91,7.9-23.59l8.88.38c-6.08,13.19-9.37,31.38-16.22,43.81-4.26,7.74-19.13,10.55-17.79-1.33,24.03,3.55-.94-32.05-2-43l9.95.04Z"/>
      <path d="M656.7,416.57c9.87-1.67,19,.73,22.73,10.79,6.26,16.87-9.32,31.29-25.99,23.99-14.52-6.36-12.06-32.19,3.26-34.78ZM656.27,444.02c12.38,10.94,21.42-14.89,10.46-19.95-12.82-5.93-18.16,13.15-10.46,19.95Z"/>
      <path d="M317.7,416.57c9.65-1.63,19.21.76,22.75,10.77,6.01,17.02-9.26,31.35-26.01,24.01-14.52-6.36-12.06-32.19,3.26-34.78ZM319.67,423.54c-7.63,2.26-8.58,20.57,2.05,22.6,14.32,2.73,15.01-27.65-2.05-22.6Z"/>
      <path d="M129.74,331.57c26.12-2.84,27.64,37.2,2.61,37.66-23.65.43-25.25-35.19-2.61-37.66ZM130.72,338.5c-11.71,1.89-9.87,23.99,1.76,23.72,12.23-.28,11.25-25.82-1.76-23.72Z"/>
      <path d="M461.96,452.33l-8.45.07c-.45-6.06-4.89-.71-8.73.24-15.74,3.92-22.64-14.18-7.79-19.79,2.44-.92,14.79-2.69,15.04-4.12-.88-8.81-10.63-8.38-14.49-1.73l-7.56-.68c.59-13.31,28.55-13.84,30.05-2.55,1.2,9.07-1.94,19.47,1.94,28.55ZM451.96,435.33c-4.67-.18-16.93,1.93-13.54,9,3.78,7.87,16.57-1.17,13.54-9Z"/>
      <path d="M340.96,352.33c-1.29,9.7,10.21,14.5,14.58,4.97,1.5,1.76,9.18-.27,8.4,2.51-9.52,16.32-32.63,10.54-32.87-9.09-.34-26.77,35.92-25.03,33.89,1.61h-24ZM355.96,347.33c.26-12.08-16.01-12-15,0h15Z"/>
      <path d="M400.46,436.33c-3.48,1.03.26,8.5,3.44,9.56,8.54,2.85,8.8-3.95,10.5-4.23,1.4-.24,6.74,1.61,8.56,2.17-12.58,18.33-36.12,9.46-32.73-13.73,3.35-22.91,37.51-16.61,32.73,7.24-.36.5-1.28-1-1.49-1-4.46,0-17.94-.9-21,0ZM413.96,431.33c-.12-12.32-13.98-11.52-15,0h15Z"/>
      <path d="M280.96,368.33h-9v-25.5c0-.44-2.29-3.66-2.99-4-5.5-2.68-12.01,2.69-12.01,8v21.5h-9v-36h9c-2.51,9.96,1.92,2.34,6,.49,4.49-2.03,10.74-2.04,14.54,1.47.93.86,3.46,5.7,3.46,6.54v27.5Z"/>
      <path d="M213.96,332.33v24.5c0,.26,2.24,4.3,2.66,4.58,4.92,3.16,12.34-1.87,12.34-6.58v-22.5h9v36h-9s.49-5.01.49-5.01c-3.01,1.24-3.83,3.48-7.25,4.74-7.79,2.87-17.24-1.01-17.24-10.23v-25.5h9Z"/>
      <path d="M137.96,436.33c-.84,7.22,4.62,12.43,11.77,9.34,1.63-.7,1.29-3,3.73-3.4,1.36-.22,8.04.32,7.44,2.49-2.75,9.82-21.52,11.03-27.96,3.81-6.95-7.81-5.47-28.78,5.99-31.77,15.18-3.96,23.84,6.06,23.02,20.53-.36.5-1.28-1-1.49-1h-22.5ZM152.96,431.33c.38-12-15.38-12-15,0h15Z"/>
      <path d="M245.96,416.33v26.5c0,5.59,14,4.14,14-2v-24.5h9v36h-8.01s-.49-5-.49-5c-4.43,6.21-15.02,8.28-20.78,3.05-.58-.53-2.72-4.29-2.72-4.55v-29.5h9Z"/>
      <path d="M470.96,416.33h8.01s0,5,0,5c4.77-7.14,23.99-7.12,23.99,2.5v28.5h-9v-25.5c0-6.37-14-5.11-14,1v24.5h-9v-36Z"/>
      <path d="M688.96,416.33h8.01s.51,5.01.51,5.01c2.07.45,1.47-1.76,3.08-2.87,5.75-3.97,20.41-2.93,20.41,5.37v28.5h-9v-25.5c0-6.37-14-5.11-14,1v24.5h-9v-36Z"/>
      <path d="M583.96,416.33h8.01s0,5,0,5c4.46-5.1,16.22-7.64,21.01-2.52.51.54,2.98,4.73,2.98,5.02v28.5h-9v-25.5c0-4.21-8.3-6.2-12.02-2.02s-3.65,21.73-1.98,27.51h-10c-.5-.36,1-1.28,1-1.49v-34.5Z"/>
      <path d="M182.96,338.33l-4.99,1-.02-7h5.01c-.8-14.88,6.29-14.82,18.99-13.99l-1.04,5.94-6.97.54-1.99,7.51h8s-1.01,7-1.01,7c-1.5-1.33-6.99-1.45-6.99.5v28.5h-9v-30Z"/>
      <path d="M65.96,423.33h-5.01s0-7.01,0-7.01h5.01c-1.49-7.63,2.58-9.14,8.48-12l.5,12.02h6.01s0,7,0,7h-6.01s0,20.49,0,20.49c0,2.49,5.21,2.29,6.99,1.5l-.1,6.89c-3.89,2.31-15.89.89-15.89-4.39v-24.5Z"/>
      <path d="M278.96,416.33h8.01s0,4.99,0,4.99c3.22.35,2.45-3.83,5.7-4.78,1.77-.52,9.08-.74,9.25,1.28l-2.94,7.05c-.89.69-5.81-4.42-9.25,1.74-.26.46-1.77,4.96-1.77,5.23v20.5h-9v-36Z"/>
      <rect x="626.96" y="416.33" width="9" height="36"/>
      <path d="M157.96,354.33v-9c5.4,1.63,12.63,1.63,17.99,0v9s-17.99,0-17.99,0Z"/>
      <path d="M635.97,403.33c-.19,2.01.73,6.41-.94,7.57l-8.07.44v-8.01s9.01,0,9.01,0Z"/>
      <path class="st0" d="M-71.94,423.23l7.9.11-5.8,5.63,1.79,6.36c-2.6.57-3.95-3.6-5.64-3.89-1.82-.31-6.08,5.07-7.36,3.89,4.22-6.43,1.52-7.64-3-11.98l7.04-.47,1.97-6.54,3.09,6.9Z"/>
      <path class="st0" d="M-189.04,349.33l1.11,6.9,7.9.12-5.53,4.94,1.52,7.05-5.63-3.92-6.35,3.92,1.52-7.05-5.53-4.94,7.9-.12c.53-.45.79-9.72,3.1-6.9Z"/>
      <path class="st0" d="M-189.04,416.33l1.11,6.9,7.9.12-5.53,4.94,1.52,7.05-5.63-3.92-6.35,3.92,1.52-7.05-5.53-4.94,7.9-.12c.53-.45.79-9.72,3.1-6.9Z"/>
      <path class="st0" d="M-71.91,356.2l7.87.14-5.8,5.63,1.79,6.36c-2.6.57-3.95-3.6-5.64-3.89-1.82-.31-6.09,5.08-7.36,3.89l2.75-6.51-5.75-5.47,7.04-.47,1.97-6.54,3.12,6.87Z"/>
      <path class="st0" d="M-131.04,316.33c-.29,6.79,2.78,7.73,9,7.01l-6.05,4.58,2.04,7.41-6.33-3.83-6.66,3.82,1.87-7.29-4.87-4.69,7.04-.47c2.22-1.47.43-7.33,3.96-6.54Z"/>
      <path class="st0" d="M-131.04,450.33c-.34,6.43,3.1,8.8,9,6.01,1.95,2.01-5.38,3.62-5.86,5.6l1.86,7.4-6.52-3.98-6.47,3.98,1.85-7.27-4.84-5.73,7.03.54c2.21-1.47.43-7.33,3.95-6.54Z"/>
      <path class="st0" d="M-56.04,390.34l-4.86,4.68,1.85,7.31c-5.84-4.8-7.14-4.8-12.98,0l1.85-7.31-5.86-5.68,7.88.87,2.61-6.87c2.96,4.9,2.22,8.25,9.5,7.01Z"/>
      <path class="st0" d="M-198.05,383.33l1.97,6.54,7.03.47-6.04,4.58,3.05,7.4c-2.75.18-4.02-3.54-6.65-3.78-2.8-.26-6.07,4.97-7.34,3.78l3.05-7.4-6.04-4.58,7.03-.47c2.21-1.47.43-7.33,3.95-6.54Z"/>
      <path class="st0" d="M-89.04,448.34l-4.87,4.69,1.36,7.31-5.97-4.02-6.51,4.01,1.86-7.4-5.88-4.1c7.69-.09,7.45-1.21,10.52-7.5l2.46,6.53,7.04.47Z"/>
      <polygon class="st0" points="-162.9 332.19 -156.04 332.34 -160.9 337.02 -159.04 344.33 -165.52 340.32 -172.03 344.33 -170.14 336.99 -175.04 332.34 -168.15 332.21 -165.54 325.32 -162.9 332.19"/>
      <polygon class="st0" points="-162.9 448.19 -156.04 448.34 -160.9 453.02 -159.04 460.33 -165.52 456.32 -172.03 460.33 -170.14 452.99 -175.04 448.34 -168.18 448.19 -165.54 441.32 -162.9 448.19"/>
      <polygon class="st0" points="-89.04 332.34 -93.91 337.03 -92.04 344.33 -98.52 340.32 -105.03 344.33 -103.14 336.99 -108.04 332.34 -101.14 332.23 -98.05 325.33 -96.1 331.89 -89.04 332.34"/>
      <path class="st0" d="M449.67,338.54c13.64-4.09,14.95,22.66,3.7,23.78-11.54,1.15-12.57-21.12-3.7-23.78Z"/>
      <path class="st0" d="M303.67,338.54c14.84-4.45,15.44,26.78,1.02,23.59-9.01-1.99-8.58-21.32-1.02-23.59Z"/>
      <path class="st0" d="M385.67,338.54c13.89-4.15,15.04,22.28,3.71,23.77-12.02,1.57-12.09-21.26-3.71-23.77Z"/>
      <path class="st0" d="M364.7,422.51c13.07-2.66,13.78,22.53,3.67,23.8-13.14,1.65-13.16-21.87-3.67-23.8Z"/>
      <path class="st0" d="M319.67,423.54c17.06-5.05,16.37,25.33,2.05,22.6-10.63-2.03-9.68-20.34-2.05-22.6Z"/>
      <path class="st0" d="M451.96,435.33c3.04,7.83-9.76,16.87-13.54,9-3.39-7.07,8.87-9.18,13.54-9Z"/>
      <path class="st0" d="M355.96,347.33h-15c-1.01-12,15.26-12.08,15,0Z"/>
      <path class="st0" d="M413.96,431.33h-15c1.02-11.52,14.88-12.32,15,0Z"/>
      <path class="st0" d="M152.96,431.33h-15"/>
    </g>
  </g>
</svg>