<?xml version="1.0" encoding="UTF-8"?>
<svg id="Layer_1" xmlns="http://www.w3.org/2000/svg" version="1.1" viewBox="0 0 141.73 141.73">
  <!-- Generator: Adobe Illustrator 29.1.0, SVG Export Plug-In . SVG Version: 2.1.0 Build 142)  -->
  <defs>
    <style>
      .st0 {
        fill: #fff;
      }
    </style>
  </defs>
  <g id="W9tNLE">
    <path class="st0" d="M137.65,140.98c-1.45,1.47-4.19,1.91-5.8.38l-46.01-46.03c-13.66,10.91-30.61,15.03-47.69,10.45C-7.24,93.58-13.66,30.38,28.07,8.89c43.43-22.36,90.7,22.17,71.68,67.15-2.01,4.76-4.91,8.78-7.63,13.02l45.06,45.26c1.77,1.62,2.22,4.89.49,6.65ZM46.63,12.21C22.76,14.44,5.83,38.13,9.06,61.49c5.16,37.33,53.19,50.83,76.62,21.26,24.35-30.73.14-74.19-39.05-70.53Z"/>
  </g>
</svg>